<?xml version="1.0" encoding="UTF-8"?>
<svg width="24mm" height="24mm" version="1.1" viewBox="0 0 24 24" xmlns="http://www.w3.org/2000/svg">
 <path fill="currentColor" d="m17.21 1.6735-2.551 2.5025-3.8629 6.4035 2.6012 2.6563 6.4751-3.7576 2.5042-2.4639v-1.3042l-2.4099 2.3697-3.9092-3.9765 2.4738-2.4193-1.3213-0.0105zm-1.7148 3.1926 3.7031 3.7576-5.6406 3.4479-1.5941-1.6277 3.5316-5.5778zm-6.0353 5.5965c-0.35416 0-0.64712 0.29119-0.64712 0.65319 0 0.3542 0.29296 0.64878 0.64712 0.64878 0.36589 0 0.65871-0.29458 0.65871-0.64878 0-0.362-0.29282-0.65319-0.65871-0.65319zm-2.3085 0.48176c-0.36066 0-0.65263 0.29434-0.65263 0.65375 0 0.35669 0.29197 0.64822 0.65263 0.64822 0.35547 0 0.64713-0.29153 0.64713-0.64822 0-0.35941-0.29166-0.65375-0.64713-0.65375zm-2.3934 0.49224c-0.36458 0-0.6576 0.28633-0.6576 0.64823 0 0.3594 0.29302 0.65374 0.6576 0.65374 0.35547 0 0.64823-0.29434 0.64823-0.65374 0-0.3619-0.29276-0.64823-0.64823-0.64823zm-2.492 0.53633c-0.35027 0-0.64327 0.29434-0.64327 0.65374 0 0.3568 0.293 0.64823 0.64327 0.64823 0.37108 0 0.66255-0.29143 0.66255-0.64823 0-0.3594-0.29147-0.65374-0.66255-0.65374zm9.3789 0.5209-9.9924 3.0907 2e-3 4.1198 2.6155 2.6227h4.0376l3.3376-9.8331zm-1.0793 1.0754-4.5381 6.1979-1.7694-1.8019 6.3075-4.3959zm2.4072 0.30206c-0.375 0-0.67689 0.29185-0.67689 0.65375 0 0.362 0.30189 0.64822 0.67689 0.64822 0.3672 0 0.66421-0.28622 0.66421-0.64822 0-0.3619-0.29701-0.65375-0.66421-0.65375zm-4.7812 0.43767-4.596 2.9843-1.0208-1.0418 5.6169-1.9425zm1.6277 1.4817-2.1161 5.6014-0.98171-0.99219 3.0978-4.6093zm2.7406 0.5231c-0.3606 0-0.65319 0.29468-0.65319 0.64878 0 0.362 0.29259 0.64823 0.65319 0.64823 0.3607 0 0.65264-0.28623 0.65264-0.64823 0-0.3541-0.29194-0.64878-0.65264-0.64878zm-10.186 0.78934 4.5001 4.5387-2.2071-0.0127-2.2539-2.292-0.0391-2.2341zm9.7593 1.5285c-0.3594 0-0.65374 0.29174-0.65374 0.65374 0 0.3593 0.29434 0.64603 0.65374 0.64603 0.3606 0 0.65319-0.28673 0.65319-0.64603 0-0.362-0.29259-0.65374-0.65319-0.65374zm-0.44042 2.341c-0.3607 0-0.65209 0.28678-0.65209 0.64878 0 0.3568 0.29139 0.64823 0.65209 0.64823 0.3593 0 0.65374-0.29143 0.65374-0.64823 0-0.362-0.29444-0.64878-0.65374-0.64878z"/>
</svg>
