<?xml version="1.0" encoding="UTF-8"?>
<svg width="24mm" height="24mm" version="1.1" viewBox="0 0 24 24" xmlns="http://www.w3.org/2000/svg">
 <path fill="currentColor" d="m17.389 1.3727-2.5654 2.5185-3.8905 6.4426 2.6194 2.6745 6.5176-3.7824 2.5185-2.4794v-1.3136l-2.4248 2.3851-3.9335-4.0002 2.4882-2.4347-1.3295-0.0105zm-1.7248 3.2125 3.7268 3.7813-5.6764 3.4682-1.6035-1.6393 3.5531-5.6103zm-5.9928 6.5319c-0.0421 2e-3 -0.0845 9e-3 -0.12677 0.0198-0.15951 0.0429-0.2936 0.14884-0.37759 0.29214-0.0833 0.1445-0.10711 0.31615-0.0628 0.47625 0.0417 0.1628 0.14651 0.29574 0.29104 0.38034 0.14323 0.0834 0.31114 0.10509 0.47129 0.0634 0.33791-0.0911 0.5408-0.43344 0.4542-0.76674-0.0781-0.29164-0.35465-0.48163-0.64934-0.46523zm-1.8157 0.99329c-0.0415 2e-3 -0.0835 8e-3 -0.12512 0.0187-0.33464 0.0911-0.53448 0.43786-0.44594 0.77115 0.0892 0.3346 0.43312 0.53088 0.7684 0.44098 0.16081-0.043 0.2959-0.14564 0.37923-0.28884 0.0846-0.1485 0.10552-0.31635 0.0645-0.47515-0.078-0.29164-0.35074-0.48154-0.64106-0.46688zm2.3945 1.0027c-0.12184-9.9e-4 -0.24524 0.033-0.35388 0.10473-0.13867 0.0899-0.23338 0.23052-0.26789 0.39192-0.0332 0.1654-3e-3 0.33344 0.0893 0.47404 0.19205 0.2891 0.5778 0.3698 0.8643 0.1797 0.1445-0.0925 0.24171-0.23423 0.27561-0.39963 0.0338-0.164 3e-3 -0.32963-0.0865-0.46633-0.11925-0.18313-0.31782-0.28252-0.5209-0.28443zm-4.3182 0.0546c-0.0413 2e-3 -0.083 9e-3 -0.12457 0.0204-0.16797 0.0468-0.30692 0.14965-0.39026 0.29545-0.084 0.1446-0.10566 0.31239-0.0601 0.47129 0.041 0.1628 0.14336 0.29849 0.29049 0.38309 0.14649 0.0833 0.31771 0.10639 0.48177 0.0634 0.33073-0.0898 0.52961-0.43454 0.44042-0.76784-0.0781-0.29286-0.3485-0.48243-0.63776-0.46578zm6.3715 0.45862c-0.30103-0.0231-0.58386 0.1609-0.66532 0.45254-0.0925 0.332 0.11601 0.68352 0.45972 0.77722 0.1686 0.0469 0.34383 0.0246 0.49223-0.0601 0.1465-0.082 0.24639-0.21336 0.2927-0.37097 0.0156-0.0572 0.0233-0.11578 0.0226-0.17308-5.92e-4 -0.1055-0.0288-0.20576-0.0816-0.30206-0.0846-0.1471-0.22351-0.25796-0.39081-0.30097-0.0432-0.012-0.0865-0.0193-0.12953-0.0226zm-8.3509 0.62618c-0.0421 2e-3 -0.0845 9e-3 -0.12678 0.0198-0.33008 0.0898-0.52686 0.4349-0.43767 0.7695 0.0892 0.33209 0.42995 0.53012 0.76068 0.44152 0.16731-0.0442 0.30598-0.14705 0.39191-0.29545 0.0814-0.1446 0.10562-0.31224 0.064-0.46854-0.0803-0.29391-0.35737-0.48344-0.65209-0.46687zm4.7647 0.39191c-0.12189-8.5e-4 -0.24148 0.0326-0.34451 0.0981-0.14127 0.095-0.23845 0.23829-0.2723 0.40239-0.0339 0.1641-2e-3 0.33059 0.0888 0.47129 0.0924 0.138 0.23085 0.23324 0.39687 0.26844 0.16406 0.0338 0.33213 2e-3 0.47405-0.0915 0.13802-0.0911 0.23284-0.23002 0.26734-0.39412 0.0332-0.1654 9.88e-4 -0.33069-0.0899-0.47129-0.0918-0.1394-0.23196-0.23599-0.39798-0.27119-0.0405-8e-3 -0.0817-0.0119-0.12237-0.0121zm-6.7199 0.68626c-0.0421 2e-3 -0.0845 9e-3 -0.12678 0.0198-0.33008 0.0873-0.52621 0.43259-0.43767 0.76729 0.0892 0.3333 0.4306 0.53218 0.76068 0.44758 0.16731-0.0469 0.30578-0.15496 0.39302-0.30206 0.0801-0.1445 0.10514-0.30963 0.0628-0.46853-0.0781-0.29392-0.35721-0.48119-0.65208-0.46413zm9.2648 0.26128c-0.29108-0.0203-0.56686 0.16432-0.64657 0.45255-0.0931 0.3347 0.10477 0.67884 0.43876 0.77004 0.33331 0.0937 0.68026-0.1005 0.77336-0.4338 0.0157-0.0573 0.022-0.11453 0.022-0.16923-3e-3 -0.2721-0.18637-0.52116-0.46247-0.59806-0.0417-0.0115-0.0835-0.0186-0.12513-0.0215zm-4.1247 0.62894c-0.12036-2e-3 -0.24211 0.0312-0.35002 0.10252-0.29103 0.1914-0.37446 0.58072-0.18631 0.86982 0.0918 0.1393 0.23441 0.23429 0.39522 0.26679 0.16602 0.0365 0.33633 3e-3 0.47955-0.0882 0.28646-0.1888 0.368-0.57857 0.17529-0.87147-0.11719-0.17825-0.31313-0.27679-0.51373-0.27946zm3.1 1.2998c-0.12355-0.0101-0.24616 0.0172-0.35553 0.0777-0.14584 0.0847-0.24998 0.21874-0.2949 0.38144-0.0462 0.1602-0.0258 0.32679 0.0562 0.47129 0.0827 0.1458 0.22059 0.25356 0.382 0.29656 0.1641 0.0468 0.33486 0.0247 0.48065-0.0573 0.1459-0.0821 0.2493-0.21583 0.2916-0.37593 0.0156-0.0599 0.0249-0.11614 0.0242-0.17474 0-0.10679-0.0304-0.20966-0.0832-0.30206-0.0826-0.1458-0.21478-0.25265-0.37758-0.29435-0.0408-0.0117-0.0823-0.0192-0.12348-0.0226zm-4.6401 0.16426c-0.12229-9.9e-4 -0.24622 0.0325-0.35608 0.10473-0.13932 0.0899-0.23073 0.22912-0.26458 0.39192-0.0339 0.164-2e-3 0.33214 0.0921 0.47404 0.0892 0.1393 0.22986 0.23539 0.39522 0.26789 0.16276 0.0352 0.3273 4e-3 0.46467-0.0843 0.29233-0.194 0.37962-0.58757 0.19017-0.87147-0.11882-0.18144-0.31763-0.28064-0.52145-0.28278zm-1.6013 1.5947c-0.0423 3e-3 -0.0848 9e-3 -0.12733 0.0204-0.33138 0.0886-0.52797 0.4337-0.43876 0.7684 0.0898 0.332 0.4331 0.53112 0.76122 0.44262 0.16732-0.043 0.30653-0.1513 0.39247-0.2971 0.084-0.1445 0.10721-0.31084 0.0623-0.46964-0.078-0.294-0.35402-0.48236-0.64989-0.46467zm5.1759 0.21001c-0.29088-0.02-0.56619 0.16582-0.64822 0.45641-0.043 0.1588-0.0206 0.32643 0.0595 0.46963 0.0833 0.1472 0.21767 0.25387 0.37978 0.30207 0.16276 0.0404 0.33382 0.0197 0.47901-0.0623 0.14648-0.0833 0.25043-0.21593 0.296-0.37483 0.0905-0.33329-0.10698-0.67709-0.44097-0.76949-0.0417-0.0116-0.0836-0.0186-0.12513-0.0215zm-1.1372 1.8863c-0.042 3e-3 -0.0842 0.01-0.12623 0.0215-0.32943 0.0911-0.52295 0.43785-0.4305 0.77115 0.0924 0.3321 0.43501 0.52756 0.76509 0.43766 0.16862-0.0481 0.30432-0.15662 0.39026-0.30372 0.0788-0.1433 0.10029-0.31128 0.0573-0.47018-0.0826-0.2905-0.36187-0.47701-0.65594-0.45641z"/>
</svg>
